<mxfile host="65bd71144e">
    <diagram id="58XMA-p-C20267B4mfxz" name="PÃ¡gina-1">
        <mxGraphModel dx="779" dy="472" grid="1" gridSize="10" guides="1" tooltips="1" connect="1" arrows="1" fold="1" page="1" pageScale="1" pageWidth="850" pageHeight="1100" background="#4D4D4D" math="0" shadow="0">
            <root>
                <mxCell id="0"/>
                <mxCell id="1" parent="0"/>
                <mxCell id="4" value="" style="edgeStyle=none;html=1;" parent="1" source="2" target="3" edge="1">
                    <mxGeometry relative="1" as="geometry"/>
                </mxCell>
                <mxCell id="2" value="INICIO" style="ellipse;whiteSpace=wrap;html=1;fillColor=#66FF66;" parent="1" vertex="1">
                    <mxGeometry x="220" y="10" width="70" height="40" as="geometry"/>
                </mxCell>
                <mxCell id="6" value="" style="edgeStyle=none;html=1;" edge="1" parent="1" source="3">
                    <mxGeometry relative="1" as="geometry">
                        <mxPoint x="255" y="160" as="targetPoint"/>
                    </mxGeometry>
                </mxCell>
                <mxCell id="3" value="a, b, c" style="shape=parallelogram;perimeter=parallelogramPerimeter;whiteSpace=wrap;html=1;fixedSize=1;fillColor=#00CCCC;" parent="1" vertex="1">
                    <mxGeometry x="212.5" y="80" width="85" height="30" as="geometry"/>
                </mxCell>
                <mxCell id="33" value="" style="edgeStyle=none;html=1;" edge="1" parent="1" source="31" target="32">
                    <mxGeometry relative="1" as="geometry">
                        <Array as="points">
                            <mxPoint x="490" y="220"/>
                        </Array>
                    </mxGeometry>
                </mxCell>
                <mxCell id="40" value="" style="edgeStyle=none;html=1;" edge="1" parent="1" source="31" target="39">
                    <mxGeometry relative="1" as="geometry"/>
                </mxCell>
                <mxCell id="31" value="a+b&amp;gt;c" style="rhombus;whiteSpace=wrap;html=1;fillColor=#FF33FF;" vertex="1" parent="1">
                    <mxGeometry x="192.5" y="160" width="125" height="120" as="geometry"/>
                </mxCell>
                <mxCell id="37" value="" style="edgeStyle=none;html=1;" edge="1" parent="1" source="32" target="36">
                    <mxGeometry relative="1" as="geometry">
                        <Array as="points">
                            <mxPoint x="640" y="330"/>
                        </Array>
                    </mxGeometry>
                </mxCell>
                <mxCell id="44" value="" style="edgeStyle=none;html=1;" edge="1" parent="1" source="32" target="43">
                    <mxGeometry relative="1" as="geometry"/>
                </mxCell>
                <mxCell id="32" value="a+c&amp;gt;b" style="rhombus;whiteSpace=wrap;html=1;fillColor=#FF33FF;" vertex="1" parent="1">
                    <mxGeometry x="425" y="270" width="125" height="120" as="geometry"/>
                </mxCell>
                <mxCell id="46" value="" style="edgeStyle=none;html=1;" edge="1" parent="1" source="36" target="45">
                    <mxGeometry relative="1" as="geometry"/>
                </mxCell>
                <mxCell id="48" value="" style="edgeStyle=none;html=1;" edge="1" parent="1" source="36" target="47">
                    <mxGeometry relative="1" as="geometry"/>
                </mxCell>
                <mxCell id="36" value="b+c&amp;gt;a" style="rhombus;whiteSpace=wrap;html=1;fillColor=#FF33FF;" vertex="1" parent="1">
                    <mxGeometry x="570" y="420" width="125" height="120" as="geometry"/>
                </mxCell>
                <mxCell id="51" value="" style="edgeStyle=none;html=1;" edge="1" parent="1" source="39">
                    <mxGeometry relative="1" as="geometry">
                        <mxPoint x="590" y="910" as="targetPoint"/>
                        <Array as="points">
                            <mxPoint x="60" y="910"/>
                        </Array>
                    </mxGeometry>
                </mxCell>
                <mxCell id="39" value="NO&lt;br&gt;TRIANGULO" style="whiteSpace=wrap;html=1;fillColor=#0050ef;fontColor=#ffffff;strokeColor=#001DBC;" vertex="1" parent="1">
                    <mxGeometry y="190" width="120" height="60" as="geometry"/>
                </mxCell>
                <mxCell id="53" value="" style="edgeStyle=none;html=1;" edge="1" parent="1" source="43">
                    <mxGeometry relative="1" as="geometry">
                        <mxPoint x="290" y="910" as="targetPoint"/>
                    </mxGeometry>
                </mxCell>
                <mxCell id="43" value="NO&lt;br&gt;TRIANGULO" style="whiteSpace=wrap;html=1;fillColor=#0050ef;fontColor=#ffffff;strokeColor=#001DBC;" vertex="1" parent="1">
                    <mxGeometry x="222.5" y="300" width="120" height="60" as="geometry"/>
                </mxCell>
                <mxCell id="55" value="" style="edgeStyle=none;html=1;" edge="1" parent="1" source="45">
                    <mxGeometry relative="1" as="geometry">
                        <mxPoint x="427.5000000000002" y="590" as="targetPoint"/>
                    </mxGeometry>
                </mxCell>
                <mxCell id="59" value="" style="edgeStyle=none;html=1;" edge="1" parent="1" source="45">
                    <mxGeometry relative="1" as="geometry">
                        <mxPoint x="428" y="910" as="targetPoint"/>
                    </mxGeometry>
                </mxCell>
                <mxCell id="45" value="NO&lt;br&gt;TRIANGULO" style="whiteSpace=wrap;html=1;fillColor=#0050ef;fontColor=#ffffff;strokeColor=#001DBC;" vertex="1" parent="1">
                    <mxGeometry x="367.5" y="450" width="120" height="60" as="geometry"/>
                </mxCell>
                <mxCell id="57" value="" style="edgeStyle=none;html=1;" edge="1" parent="1" source="47">
                    <mxGeometry relative="1" as="geometry">
                        <mxPoint x="590" y="910" as="targetPoint"/>
                        <Array as="points">
                            <mxPoint x="837" y="910"/>
                        </Array>
                    </mxGeometry>
                </mxCell>
                <mxCell id="47" value="TRIANGULO" style="whiteSpace=wrap;html=1;fillColor=#0050ef;fontColor=#ffffff;strokeColor=#001DBC;" vertex="1" parent="1">
                    <mxGeometry x="777.5" y="450" width="120" height="60" as="geometry"/>
                </mxCell>
                <mxCell id="60" value="TRUE" style="text;html=1;strokeColor=none;fillColor=none;align=center;verticalAlign=middle;whiteSpace=wrap;rounded=0;" vertex="1" parent="1">
                    <mxGeometry x="343" y="190" width="60" height="30" as="geometry"/>
                </mxCell>
                <mxCell id="61" value="TRUE" style="text;html=1;strokeColor=none;fillColor=none;align=center;verticalAlign=middle;whiteSpace=wrap;rounded=0;" vertex="1" parent="1">
                    <mxGeometry x="560" y="300" width="60" height="30" as="geometry"/>
                </mxCell>
                <mxCell id="62" value="TRUE" style="text;html=1;strokeColor=none;fillColor=none;align=center;verticalAlign=middle;whiteSpace=wrap;rounded=0;" vertex="1" parent="1">
                    <mxGeometry x="710" y="450" width="60" height="30" as="geometry"/>
                </mxCell>
                <mxCell id="63" value="FALSE" style="text;html=1;strokeColor=none;fillColor=none;align=center;verticalAlign=middle;whiteSpace=wrap;rounded=0;" vertex="1" parent="1">
                    <mxGeometry x="132.5" y="180" width="60" height="30" as="geometry"/>
                </mxCell>
                <mxCell id="65" value="FALSE" style="text;html=1;strokeColor=none;fillColor=none;align=center;verticalAlign=middle;whiteSpace=wrap;rounded=0;" vertex="1" parent="1">
                    <mxGeometry x="360" y="300" width="60" height="30" as="geometry"/>
                </mxCell>
                <mxCell id="66" value="FALSE" style="text;html=1;strokeColor=none;fillColor=none;align=center;verticalAlign=middle;whiteSpace=wrap;rounded=0;" vertex="1" parent="1">
                    <mxGeometry x="510" y="450" width="60" height="30" as="geometry"/>
                </mxCell>
                <mxCell id="67" value="" style="endArrow=classic;html=1;" edge="1" parent="1">
                    <mxGeometry width="50" height="50" relative="1" as="geometry">
                        <mxPoint x="589.41" y="910" as="sourcePoint"/>
                        <mxPoint x="589.41" y="970" as="targetPoint"/>
                    </mxGeometry>
                </mxCell>
                <mxCell id="68" value="FIN" style="ellipse;whiteSpace=wrap;html=1;fillColor=#99FF33;labelBackgroundColor=#B3FF66;" vertex="1" parent="1">
                    <mxGeometry x="530" y="980" width="120" height="80" as="geometry"/>
                </mxCell>
            </root>
        </mxGraphModel>
    </diagram>
</mxfile>